# Blender v3.1.2 OBJ File: ''
# www.blender.org
mtllib cultroom.mtl
o Cylinder
v 0.000000 -50.000000 -100.000000
v 0.000000 50.000000 -100.000000
v 86.602547 -50.000000 -49.999996
v 86.602547 50.000000 -49.999996
v 86.602539 -50.000000 50.000008
v 86.602539 50.000000 50.000008
v -0.000009 -50.000000 100.000000
v -0.000009 50.000000 100.000000
v -86.602547 -50.000000 49.999992
v -86.602547 50.000000 49.999992
v -86.602547 -50.000000 -49.999992
v -86.602547 50.000000 -49.999992
vt 1.000000 0.500000
vt 0.833333 0.500000
vt 0.833333 1.000000
vt 1.000000 1.000000
vt 0.666667 0.500000
vt 0.666667 1.000000
vt 0.500000 0.500000
vt 0.500000 1.000000
vt 0.333333 0.500000
vt 0.333333 1.000000
vt 0.457846 0.370000
vt 0.457846 0.130000
vt 0.250000 0.010000
vt 0.042154 0.130000
vt 0.042154 0.370000
vt 0.250000 0.490000
vt 0.166667 0.500000
vt 0.166667 1.000000
vt -0.000000 0.500000
vt -0.000000 1.000000
vt 0.750000 0.490000
vt 0.542154 0.370000
vt 0.542154 0.130000
vt 0.750000 0.010000
vt 0.957846 0.130000
vt 0.957846 0.370000
vn -0.5000 0.0000 0.8660
vn -1.0000 0.0000 -0.0000
vn -0.5000 0.0000 -0.8660
vn 0.5000 0.0000 -0.8660
vn 0.0000 -1.0000 0.0000
vn 1.0000 0.0000 0.0000
vn 0.5000 0.0000 0.8660
vn 0.0000 1.0000 -0.0000
usemtl None
s off
f 1/1/1 3/2/1 4/3/1 2/4/1
f 3/2/2 5/5/2 6/6/2 4/3/2
f 5/5/3 7/7/3 8/8/3 6/6/3
f 7/7/4 9/9/4 10/10/4 8/8/4
f 4/11/5 6/12/5 8/13/5 10/14/5 12/15/5 2/16/5
f 9/9/6 11/17/6 12/18/6 10/10/6
f 11/17/7 1/19/7 2/20/7 12/18/7
f 1/21/8 11/22/8 9/23/8 7/24/8 5/25/8 3/26/8
